<?xml version="1.0" encoding="UTF-8"?>
<!DOCTYPE svg PUBLIC "-//W3C//DTD SVG 1.1//EN" "http://www.w3.org/Graphics/SVG/1.1/DTD/svg11.dtd">
<!-- Creator: CorelDRAW X8 -->
<svg xmlns="http://www.w3.org/2000/svg" xml:space="preserve" width="175px" version="1.1" style="shape-rendering:geometricPrecision; text-rendering:geometricPrecision; image-rendering:optimizeQuality; fill-rule:evenodd; clip-rule:evenodd"
viewBox="0 0 3387 847"
 xmlns:xlink="http://www.w3.org/1999/xlink">
 <defs>
  <style type="text/css">
   <![CDATA[
    .fil0 {fill:#1471EA}
    .fil1 {fill:#FE681E}
   ]]>
  </style>
 </defs>
 <g id="Layer_x0020_1">
  <metadata id="CorelCorpID_0Corel-Layer"/>
  <path class="fil0" d="M1057 429l-67 0 6 -68 66 0 -5 68zm-530 -57c0,25 -16,39 -40,39 -87,-1 -189,-3 -274,1 -30,2 -33,51 -1,51l149 0 -9 100c-1,23 -7,45 8,57 6,5 14,9 25,9l722 0c15,0 26,-8 32,-17 10,-13 7,-19 10,-39 5,-40 7,-99 12,-138 0,-6 1,-16 2,-23 1,-8 2,-17 2,-24 0,-25 5,-50 6,-68 0,-10 1,-15 1,-24l-863 0c-13,0 -23,9 -25,18 -4,13 3,25 12,27 18,6 192,-5 213,4 9,5 18,14 18,27z"/>
  <path class="fil1" d="M1668 536l-104 0c0,-38 12,-140 15,-188l8 -93c3,-18 3,-53 6,-71 1,-6 2,-17 2,-23 47,0 109,-3 151,8 27,7 53,22 67,46 39,67 19,200 -14,255 -27,46 -79,66 -131,66zm-210 93l188 0c87,0 157,-26 200,-70 54,-54 74,-110 85,-186 11,-77 5,-182 -54,-240 -45,-44 -107,-63 -174,-63l-202 0c0,17 -4,37 -4,53 -3,51 -10,106 -14,158 -1,11 -2,24 -3,34 -1,26 -9,86 -9,106 0,15 -5,53 -6,70 -1,33 -8,87 -10,124 -1,7 -5,14 3,14z"/>
  <path class="fil0" d="M2194 354l-79 0c0,-28 6,-65 7,-96 2,-31 8,-64 8,-95l99 0c54,0 107,12 107,73 0,101 -48,118 -142,118zm-204 275l97 0c6,0 6,-11 6,-19l13 -165 115 0c42,0 95,-11 127,-33 15,-9 24,-15 36,-29 3,-3 5,-4 7,-7 12,-12 24,-35 30,-51 18,-44 25,-118 2,-164 -4,-10 -9,-20 -16,-28 -7,-8 -12,-15 -21,-22 -38,-29 -84,-41 -132,-41l-217 0 -27 314c-2,43 -14,142 -14,175 -1,15 -6,53 -6,70z"/>
  <path class="fil0" d="M2624 545c-23,0 -49,1 -67,-14 -14,-13 -18,-22 -18,-46 0,-48 52,-59 93,-59 17,0 44,1 58,4 11,2 6,6 5,24 -2,29 -2,55 -23,74 -9,9 -30,17 -48,17zm78 -179c-20,-5 -58,-6 -80,-6 -65,0 -137,20 -167,80 -2,2 -2,3 -4,5 -1,3 -2,5 -3,8 -23,50 -7,120 36,151 38,27 76,31 130,31 64,0 106,-17 145,-59 13,-14 25,-38 30,-58 7,-29 7,-74 11,-105 10,-79 4,-160 -80,-195 -39,-16 -99,-17 -143,-10 -21,2 -47,8 -67,15 -6,2 -5,1 -7,7 -1,3 -1,7 -1,12 -1,16 -4,34 -4,49 -1,5 -2,11 -2,13 0,8 2,4 26,-3 43,-13 148,-30 172,18 8,16 8,24 8,47z"/>
  <path class="fil0" d="M2864 705c-36,0 -39,-9 -51,-9 0,19 -6,65 -6,85 4,2 19,6 24,7 55,12 98,-2 138,-41l16 -18c8,-12 17,-24 24,-38 12,-21 33,-63 43,-86l89 -196c2,-5 3,-7 5,-11l20 -43c9,-19 63,-135 65,-144l-107 0c-1,5 -11,29 -14,35l-43 108c-11,31 -32,76 -43,108l-14 33c-1,2 -1,1 -2,2 -7,-33 -26,-116 -34,-144l-26 -109c-2,-9 -5,-33 -11,-33l-103 0c0,6 2,11 4,16l108 369c3,9 4,7 -1,16 -9,21 -19,38 -31,55 -9,13 -31,38 -50,38z"/>
  <path class="fil0" d="M386 184l792 0c6,0 5,-6 6,-17l5 -67c0,-17 -16,-31 -33,-31l-722 0c-23,0 -38,16 -41,39l-7 76z"/>
  <path class="fil1" d="M1251 629l98 0c6,0 4,-7 4,-14l17 -193c2,-19 3,-49 6,-71 1,-10 1,-23 3,-34 1,-12 1,-23 3,-36l6 -70c1,-11 2,-22 2,-35l9 -106 -97 0c-6,0 -4,12 -6,31l-9 106c-4,28 -6,75 -9,105l-6 70c-2,12 -1,24 -3,36 -5,35 -8,108 -12,140 -2,11 -2,23 -3,34 -2,13 -3,24 -3,37z"/>
  <path class="fil0" d="M216 184l103 0c8,0 14,-4 18,-7 16,-14 8,-40 -9,-40l-113 0c-24,2 -32,47 1,47z"/>
 </g>
</svg>